<?xml version="1.0" encoding="UTF-8"?>
<svg xmlns="http://www.w3.org/2000/svg" xmlns:xlink="http://www.w3.org/1999/xlink" width="595.28pt" height="841.89pt" viewBox="0 0 595.28 841.89" version="1.1">
<g id="surface1">
<path style=" stroke:none;fill-rule:nonzero;fill:rgb(79.782104%,33.216858%,34.199524%);fill-opacity:1;" d="M 297.636719 162.992188 L 141.730469 252.992188 L 297.636719 342.992188 L 453.542969 252.992188 L 297.636719 162.992188 "/>
<path style=" stroke:none;fill-rule:nonzero;fill:rgb(76.742554%,28.877258%,30.541992%);fill-opacity:1;" d="M 453.542969 252.992188 L 297.636719 342.992188 L 453.542969 432.992188 Z M 453.542969 252.992188 "/>
<path style=" stroke:none;fill-rule:nonzero;fill:rgb(82.937622%,37.684631%,38.105774%);fill-opacity:1;" d="M 297.636719 342.992188 L 141.730469 252.992188 L 141.730469 432.992188 L 297.636719 522.992188 L 297.636719 342.992188 "/>
<path style=" stroke:none;fill-rule:nonzero;fill:rgb(57.6828%,72.279358%,67.443848%);fill-opacity:1;" d="M 453.542969 432.992188 L 297.636719 342.992188 L 297.636719 522.992188 L 453.542969 612.992188 L 453.542969 432.992188 "/>
<path style=" stroke:none;fill-rule:nonzero;fill:rgb(52.244568%,67.210388%,62.744141%);fill-opacity:1;" d="M 297.636719 522.992188 L 182.125 589.605469 L 338.03125 679.605469 L 453.542969 612.992188 L 297.636719 522.992188 "/>
<path style=" stroke:none;fill-rule:nonzero;fill:rgb(46.907043%,62.466431%,58.456421%);fill-opacity:1;" d="M 182.125 456.320312 L 182.125 589.605469 L 297.636719 522.992188 Z M 182.125 456.320312 "/>
<path style=" stroke:none;fill-rule:nonzero;fill:rgb(100%,100%,100%);fill-opacity:1;" d="M 400.304688 433.613281 C 403.074219 437.292969 404.925781 441.671875 404.925781 445.519531 C 404.925781 451.371094 400.074219 452.34375 394.683594 449.234375 C 388.832031 445.855469 384.519531 439.128906 384.519531 433.507812 C 384.519531 429.734375 386.367188 427.492188 389.140625 427.167969 Z M 376.050781 419.226562 L 379.050781 420.960938 C 376.433594 422.527344 375.277344 425.402344 375.277344 429.175781 C 375.277344 434.71875 377.742188 441.378906 381.59375 446.910156 C 384.980469 451.792969 389.601562 456.308594 394.683594 459.242188 C 405.695312 465.601562 414.164062 462.328125 414.164062 452.164062 C 414.164062 448.085938 413.007812 443.875 410.699219 439.613281 L 430.71875 451.175781 L 430.71875 441.164062 L 376.050781 409.601562 Z M 394.683594 465.402344 C 383.902344 459.179688 375.277344 462.746094 375.277344 474.066406 C 375.277344 485.382812 383.902344 498.910156 394.683594 505.132812 C 405.464844 511.359375 414.164062 507.835938 414.164062 496.515625 C 414.164062 485.195312 405.464844 471.625 394.683594 465.402344 Z M 394.683594 475.410156 C 400.304688 478.65625 404.925781 485.328125 404.925781 491.179688 C 404.925781 497.03125 400.304688 498.371094 394.683594 495.125 C 389.0625 491.878906 384.519531 485.253906 384.519531 479.398438 C 384.519531 473.546875 389.0625 472.167969 394.683594 475.410156 Z M 413.394531 549.816406 L 389.140625 535.8125 C 387.367188 533.40625 384.519531 528.679688 384.519531 524.445312 C 384.519531 522.519531 385.136719 520.71875 386.828125 520.15625 C 388.136719 519.757812 389.832031 520.042969 393.21875 522 L 413.394531 533.648438 L 413.394531 523.636719 L 393.605469 512.210938 C 388.0625 509.011719 384.210938 508.175781 381.285156 508.871094 C 377.664062 509.707031 375.277344 512.949219 375.277344 518.109375 C 375.277344 521.726562 376.433594 525.9375 379.050781 530.375 L 376.050781 528.640625 L 376.050781 538.265625 L 413.394531 559.828125 Z M 430.71875 589.847656 L 430.71875 579.839844 L 376.050781 548.273438 L 376.050781 558.285156 L 430.71875 589.847656 "/>
<path style=" stroke:none;fill-rule:nonzero;fill:rgb(100%,100%,100%);fill-opacity:1;" d="M 181.980469 379.011719 L 181.980469 388.636719 L 184.984375 390.367188 C 182.597656 391.914062 181.210938 394.890625 181.210938 399.125 C 181.210938 409.289062 189.679688 422.339844 200.691406 428.695312 C 205.773438 431.632812 210.394531 432.527344 213.78125 431.558594 C 217.632812 430.46875 220.09375 426.578125 220.09375 421.035156 C 220.09375 417.261719 219.015625 413.40625 216.707031 409.070312 L 237.804688 421.25 L 237.804688 411.238281 Z M 206.234375 403.023438 C 209.007812 406.550781 210.855469 410.925781 210.855469 414.699219 C 210.855469 420.320312 206.542969 422.066406 200.691406 418.6875 C 195.300781 415.574219 190.449219 409.003906 190.449219 403.148438 C 190.449219 399.300781 192.296875 397.054688 195.070312 396.578125 Z M 181.980469 343.589844 L 206.234375 357.59375 C 208.007812 360.003906 210.855469 364.726562 210.855469 368.960938 C 210.855469 370.886719 210.238281 372.6875 208.546875 373.25 C 207.234375 373.648438 205.542969 373.363281 202.152344 371.40625 L 181.980469 359.761719 L 181.980469 369.769531 L 201.769531 381.195312 C 207.3125 384.394531 211.164062 385.234375 214.089844 384.535156 C 217.707031 383.699219 220.09375 380.457031 220.09375 375.296875 C 220.09375 371.679688 218.941406 367.46875 216.320312 363.03125 L 219.324219 364.765625 L 219.324219 355.140625 L 181.980469 333.578125 Z M 206.234375 310.238281 C 209.007812 313.765625 210.855469 318.144531 210.855469 321.917969 C 210.855469 327.539062 206.542969 329.28125 200.691406 325.902344 C 195.300781 322.792969 190.449219 316.21875 190.449219 310.367188 C 190.449219 306.515625 192.296875 304.273438 195.070312 303.792969 Z M 181.980469 286.226562 L 181.980469 295.851562 L 184.984375 297.585938 C 182.597656 299.132812 181.210938 302.105469 181.210938 306.339844 C 181.210938 316.503906 189.679688 329.558594 200.691406 335.914062 C 205.773438 338.847656 210.394531 339.667969 213.78125 338.699219 C 217.632812 337.609375 220.09375 333.796875 220.09375 328.253906 C 220.09375 324.480469 218.941406 320.269531 216.320312 315.679688 L 219.324219 317.414062 L 219.324219 307.789062 L 181.980469 286.226562 "/>
<path style=" stroke:none;fill-rule:nonzero;fill:rgb(100%,100%,100%);fill-opacity:1;" d="M 356.359375 594.933594 C 355.253906 592.367188 356.273438 589.644531 359.542969 587.761719 C 364.410156 584.949219 372.390625 585.320312 378.242188 588.699219 C 383.632812 591.8125 385.214844 596.5 380.148438 599.425781 C 376.8125 601.351562 372.097656 601.9375 367.523438 601.378906 Z M 334.601562 592.378906 L 389.269531 623.941406 L 397.941406 618.9375 L 377.921875 607.378906 C 382.765625 607.25 386.988281 606.144531 390.519531 604.105469 C 399.324219 599.023438 397.921875 590.050781 386.910156 583.695312 C 381.828125 580.761719 375.609375 579.019531 369.6875 578.523438 C 362.96875 577.957031 355.96875 579.152344 351.167969 581.925781 C 347.902344 583.8125 345.988281 586.25 345.941406 589.300781 L 342.9375 587.566406 Z M 314.285156 617.53125 C 313.894531 615.535156 314.441406 612.464844 318.109375 610.347656 C 322.710938 607.691406 330 607.660156 335.699219 610.414062 L 313.296875 623.351562 C 314.007812 623.917969 314.945312 624.535156 315.945312 625.113281 C 326.339844 631.113281 341.375 632.480469 350.3125 627.320312 C 359.914062 621.777344 356.964844 612.988281 346.566406 606.988281 C 334.863281 600.230469 319.894531 599.980469 310.226562 605.5625 C 305.226562 608.449219 302.476562 612.792969 303.65625 617.09375 Z M 342.617188 614.871094 C 345.605469 617.058594 345.828125 620.574219 342.226562 622.652344 C 338.691406 624.691406 332.855469 624.328125 329.28125 622.570312 Z M 306.058594 652.515625 C 307.148438 652.0625 308.035156 651.730469 309.300781 650.996094 C 313.234375 648.726562 315 645.664062 314.160156 642.945312 L 317.933594 645.125 L 326.269531 640.3125 L 288.925781 618.75 L 280.253906 623.757812 L 303.738281 637.316406 C 304.90625 639.21875 305.0625 642.773438 301.261719 644.96875 C 299.996094 645.699219 298.574219 646.34375 297.742188 646.558594 L 306.058594 652.515625 "/>
<path style=" stroke:none;fill-rule:nonzero;fill:rgb(100%,100%,100%);fill-opacity:1;" d="M 239.21875 271.140625 C 240.324219 273.703125 239.304688 276.425781 236.035156 278.3125 C 231.167969 281.125 223.1875 280.75 217.335938 277.371094 C 211.945312 274.261719 210.363281 269.574219 215.429688 266.648438 C 218.765625 264.722656 223.480469 264.132812 228.054688 264.695312 Z M 260.976562 273.695312 L 206.308594 242.128906 L 197.636719 247.136719 L 217.65625 258.695312 C 212.8125 258.824219 208.589844 259.925781 205.058594 261.96875 C 196.253906 267.050781 197.65625 276.019531 208.667969 282.378906 C 213.75 285.3125 219.96875 287.054688 225.890625 287.546875 C 232.609375 288.117188 239.609375 286.921875 244.410156 284.148438 C 247.675781 282.261719 249.589844 279.824219 249.636719 276.773438 L 252.640625 278.507812 Z M 253.175781 234.539062 C 252.089844 234.992188 251.203125 235.324219 249.933594 236.058594 C 246 238.328125 244.238281 241.390625 245.074219 244.109375 L 241.300781 241.929688 L 232.96875 246.742188 L 270.3125 268.304688 L 278.980469 263.300781 L 255.496094 249.738281 C 254.328125 247.835938 254.171875 244.28125 257.972656 242.085938 C 259.242188 241.355469 260.660156 240.710938 261.492188 240.496094 Z M 308.964844 232.5625 C 309.355469 234.558594 308.808594 237.632812 305.140625 239.75 C 300.539062 242.40625 293.253906 242.433594 287.550781 239.679688 L 309.953125 226.742188 C 309.242188 226.179688 308.308594 225.5625 307.308594 224.984375 C 296.910156 218.980469 281.875 217.617188 272.941406 222.773438 C 263.335938 228.320312 266.289062 237.105469 276.683594 243.109375 C 288.386719 249.867188 303.355469 250.113281 313.023438 244.53125 C 318.027344 241.644531 320.773438 237.300781 319.597656 233.003906 Z M 280.636719 235.226562 C 277.648438 233.039062 277.425781 229.523438 281.023438 227.441406 C 284.558594 225.402344 290.394531 225.769531 293.972656 227.527344 Z M 288.324219 194.777344 L 279.65625 199.78125 L 334.328125 231.34375 L 342.996094 226.339844 L 288.324219 194.777344 "/>
</g>
</svg>
